<svg xmlns="http://www.w3.org/2000/svg" width="145.5" height="40" viewBox="0 0 531 146">
    <path fill="#FFF" fill-rule="nonzero" d="M48.726 124.783c39.7 7.562 68.837 1.67 87.825-17.318 19.871-19.871 25.4-50.856 16.177-93.429C110.155 4.814 79.17 10.342 59.3 30.213c-19.032 19.032-24.908 48.259-17.267 88.098l26.65-26.651-.195.017-3.989-44.268 9.328-.838 3.302 36.644L93.35 66.993l-2.81-24.358 9.165-1.12 1.978 17.145 17.713-17.713 6.583 6.583-77.253 77.253zm-7.861 7.862l-2.657 2.656C26.71 147.443 14.542 148.642 4 138.1l-3.292-3.291 6.58-6.58 3.292 3.291c6.57 6.571 12.772 5.952 20.907-2.66l.092-.095 2.599-2.598c-10-45.667-3.95-79.998 18.563-102.51C75.647.748 110.786-5.115 157.652 5.628l2.834.65.649 2.833c10.743 46.866 4.88 82.005-18.026 104.911-22.47 22.47-56.71 28.54-102.244 18.622zM228.09 120c-1.314 0-2.073-.702-2.073-2.055V58.34c0-1.354-.707-2.055-2.072-2.055h-15.873c-1.315 0-2.073-.752-2.073-2.056v-9.174c0-1.353.758-2.055 2.073-2.055h50.854c1.365 0 2.073.702 2.073 2.055v9.174c0 1.304-.708 2.056-2.073 2.056h-15.822c-1.315 0-2.073.701-2.073 2.055v59.605c0 1.353-.708 2.055-2.072 2.055H228.09zm38.969 0c-1.357 0-2.06-.696-2.06-2.04V69.369c0-1.293.703-2.04 2.06-2.04h9.544c1.357 0 2.06.747 2.06 2.04v4.128c0 1.84 1.005 2.238 2.26.746 3.065-3.432 7.737-6.366 13.866-7.212 1.406-.199 2.21.597 2.21 1.89v9.4c0 1.194-.703 2.04-2.06 2.04-9.946.497-15.623 4.576-15.623 14.473v23.128c0 1.343-.753 2.039-2.06 2.039H267.06zm58.813 1C311.903 121 300 109.363 300 93.45 300 77.587 311.903 66 325.873 66c6.405 0 11.55 2.089 15.332 5.42 1.412 1.194 2.421 1.045 2.421-.547v-1.59c0-1.294.757-2.04 2.068-2.04h10.238c1.362 0 2.068.746 2.068 2.04v48.584c0 1.343-.706 2.039-2.068 2.039h-10.289c-1.361 0-2.067-.696-2.067-2.039v-1.243c0-1.74-.807-2.387-1.866-1.393-3.783 3.531-9.079 5.769-15.837 5.769zm4.678-12c8.64 0 15.449-6.3 15.449-15.55 0-9.2-6.81-15.45-15.45-15.45-8.69 0-15.55 6.25-15.55 15.45 0 9.25 6.86 15.55 15.55 15.55zm59.915 12c-7.544 0-14.988-2.352-20.433-5.705-1.15-.7-1.3-1.652-.65-2.803l3.847-6.706c.65-1.2 1.699-1.351 2.798-.55 4.247 2.802 9.842 4.954 14.339 4.954 4.096 0 6.844-1.751 6.844-5.004 0-4.054-4.896-5.255-10.691-7.207-7.145-2.352-15.638-5.205-15.638-15.764 0-11.01 9.243-16.215 19.934-16.215 5.845 0 11.84 1.501 16.987 4.454 1.199.65 1.398 1.602.649 2.753l-3.897 5.955c-.7 1.101-1.698 1.301-2.798.65-3.647-2.051-8.043-3.352-11.29-3.352-3.698 0-6.246 1.5-6.246 4.303 0 3.754 5.446 4.805 11.541 6.757C402.956 89.822 411 93.075 411 103.934c0 11.41-8.743 17.066-20.534 17.066zm33.607-1c-1.365 0-2.073-.702-2.073-2.055v-72.89c0-1.353.708-2.055 2.073-2.055h10.164c1.315 0 2.074.702 2.074 2.055v25.817c0 1.855.96 2.106 2.275.802 3.49-3.659 8.192-5.764 13.957-5.764C463.92 65.91 471 72.978 471 86.262v31.683c0 1.353-.708 2.055-2.073 2.055h-10.164c-1.366 0-2.074-.702-2.074-2.055V88.819c0-8.422-4.247-10.928-9.506-10.928-6.524 0-10.872 3.86-10.872 11.98v28.074c0 1.353-.759 2.055-2.074 2.055h-10.164zm64.066 25c-1.512 0-2.168-.952-1.613-2.355l9.676-24.396c.454-.952.454-1.654 0-2.706l-18.95-46.188c-.655-1.403 0-2.355 1.563-2.355h11.49c1.11 0 1.916.601 2.269 1.703l10.483 30.208c.604 1.854 2.066 1.754 2.721-.05l10.332-30.158c.353-1.102 1.16-1.703 2.318-1.703h10.735c1.563 0 2.167.952 1.663 2.355l-29.886 73.992c-.403 1.002-1.21 1.653-2.369 1.653H488.14z"/>
</svg>
